<svg xmlns="http://www.w3.org/2000/svg" viewBox="0 0 1024 1024" width="1024" height="1024" role="img" aria-label="Vera Home Immobilien Piktogramm">
  <title>Vera Home Immobilien – Piktogramm</title>
  <path d="
M341.982178,123.931000
	C382.990997,104.379250 425.770294,92.265884 470.542755,87.635689
	C572.018433,77.141472 664.607483,101.782288 746.623352,162.009216
	C821.352661,216.885437 870.738098,290.145721 895.598816,379.729431
	C906.521667,419.089142 910.861328,459.214478 908.958618,499.861664
	C905.896484,565.278015 887.361145,626.241699 853.784119,682.544800
	C816.844421,744.486816 766.780823,793.006897 703.749634,827.918762
	C659.141418,852.626526 611.398804,868.053894 560.714966,874.494751
	C532.477051,878.083191 504.190338,878.677979 475.969635,875.985474
	C421.109406,870.751404 369.321075,855.006042 321.040253,828.179871
	C271.732452,800.782959 229.647736,764.874023 195.169647,720.261597
	C156.557236,670.299500 132.246231,613.890503 120.712090,551.887573
	C115.479668,523.760132 113.367897,495.346924 114.970345,466.843292
	C117.980095,413.307312 129.857147,361.876129 153.116074,313.252045
	C173.972885,269.649689 201.460068,230.876022 236.183289,197.286285
	C267.331329,167.155060 302.415649,142.618790 341.982178,123.931000
M301.131073,795.351135
	C309.055786,800.266235 316.852509,805.403198 324.925934,810.060486
	C377.564514,840.426147 434.393951,856.693909 494.990143,859.535400
	C523.338135,860.864685 551.573547,858.831848 579.530762,853.664856
	C650.961060,840.463135 713.673035,809.431396 767.425781,760.705322
	C813.295349,719.125122 846.961548,669.058533 868.585571,611.000977
	C881.748962,575.658936 889.443237,539.078796 891.482117,501.462341
	C892.653748,479.846436 891.572693,458.223785 888.956238,436.648773
	C884.447937,399.474854 874.985657,363.601013 859.387146,329.704498
	C820.549255,245.307281 760.286560,181.096466 676.262634,140.343796
	C614.787048,110.527313 549.679199,98.810997 481.642517,104.484474
	C441.569458,107.826096 402.874390,117.318619 365.725616,133.013412
	C304.562836,158.853729 253.421494,197.801300 212.539780,250.043060
	C184.029694,286.475403 162.939514,326.909576 149.253281,371.156189
	C139.715210,401.992035 133.752975,433.499695 132.386520,465.747589
	C131.256973,492.404694 132.477036,518.938782 137.113480,545.351013
	C143.555771,582.050598 154.746689,617.132385 171.560562,650.310059
	C201.744034,709.868774 245.250366,757.694214 301.131073,795.351135
z" fill="#C9A84C"/>
  <path d="
M833.014343,319.054443
	C851.558350,355.773010 864.325317,393.957123 870.042786,434.409393
	C874.831665,468.291351 874.444946,502.089783 869.050720,535.890808
	C861.638794,582.334534 846.078247,625.816650 821.644165,665.977112
	C781.763123,731.526611 726.768494,780.002686 656.490601,811.048584
	C623.652527,825.555115 589.423828,834.967346 553.791504,839.038269
	C528.582031,841.918518 503.339600,841.858704 478.016388,839.508362
	C433.706146,835.395569 391.730103,823.394043 352.044250,803.464172
	C290.581390,772.598267 241.619064,727.645996 204.284805,670.113525
	C179.398712,631.763855 164.101044,589.491638 155.726852,544.652771
	C151.649887,522.823059 149.529007,500.741913 150.142059,478.587006
	C151.538589,428.117859 161.930054,379.548981 183.145248,333.545410
	C214.238632,266.121643 261.486206,212.905304 324.881714,174.339920
	C369.614044,147.127914 418.214325,130.739975 470.286255,124.570168
	C544.124451,115.821358 613.984497,128.868896 679.668091,163.309219
	C723.164307,186.115891 759.646423,217.753967 790.890381,255.561462
	C807.090942,275.165405 820.838989,296.357513 833.014343,319.054443
M805.769775,307.691406
	C781.686096,268.708221 751.678101,235.152573 714.914307,207.635040
	C657.176697,164.418671 592.046875,142.695724 520.262268,140.419357
	C493.699738,139.577011 467.300323,142.133926 441.376465,147.903763
	C356.200317,166.861267 286.504791,210.469177 234.870041,281.097778
	C178.915970,357.634583 158.257538,443.457794 172.434570,537.140442
	C180.741882,592.035645 202.561264,641.540955 236.832382,685.366943
	C241.983215,691.953918 246.968872,698.756042 253.922897,705.225220
	C253.922897,701.502014 253.923950,698.858521 253.922745,696.215027
	C253.890732,625.716187 253.885086,555.217285 253.756760,484.718597
	C253.749466,480.712128 254.719818,477.920715 258.118622,475.455414
	C288.062500,453.736023 317.978668,431.975311 347.655121,409.893585
	C352.191833,406.517914 355.038849,406.928925 359.300354,410.003204
	C391.593719,433.300415 423.960754,456.499023 456.548676,479.381073
	C462.137634,483.305450 464.526825,487.236115 464.508575,494.328369
	C464.235809,600.326111 464.309998,706.324707 464.305237,812.323120
	C464.304901,819.632446 464.295624,819.863708 471.599091,820.485901
	C485.367340,821.658813 499.132751,822.999512 512.985229,822.788940
	C520.719055,822.671326 520.742432,822.747498 520.744202,815.098938
	C520.757568,756.933167 520.762268,698.767456 520.768127,640.601685
	C520.771484,608.102234 520.777710,575.602722 520.763550,543.103271
	C520.762268,540.067993 520.787781,537.359802 523.769653,535.203918
	C554.017029,513.335571 584.182251,491.353271 614.330872,469.348694
	C616.682556,467.632294 618.446838,467.524628 620.964661,469.324127
	C654.447266,493.254333 688.008667,517.074402 721.582825,540.876099
	C723.674866,542.359253 724.644409,544.012085 724.638855,546.672607
	C724.503296,611.836487 724.440186,677.000549 724.399658,742.164551
	C724.398438,744.070129 723.771301,746.197937 725.561829,747.775024
	C832.355347,668.580688 910.390930,482.363251 805.769775,307.691406
M286.500061,737.973877
	C303.656372,752.648193 321.842041,765.801758 342.264099,776.884766
	C342.264099,663.767456 342.264099,551.836914 342.264099,439.903625
	C340.259094,439.906097 339.177856,440.710480 338.102905,441.489471
	C317.876831,456.146118 297.675476,470.837036 277.412689,485.442780
	C274.431305,487.591827 273.251740,490.142426 273.269684,493.869446
	C273.399353,520.854614 273.293457,547.840759 273.341034,574.826538
	C273.421783,620.633301 273.924316,666.443970 273.416992,712.243774
	C273.291473,723.576477 276.475891,731.715271 286.500061,737.973877
M606.718079,762.500000
	C606.719299,757.669373 606.721130,752.838806 606.721619,748.008179
	C606.728821,667.887573 606.742432,587.766968 606.706604,507.646393
	C606.705688,505.599060 607.617188,502.893677 605.229248,501.752258
	C603.110901,500.739655 601.609802,502.975067 600.068176,504.083221
	C582.086243,517.009033 564.243347,530.130920 546.137817,542.880310
	C541.882568,545.876709 540.111511,549.009521 540.174683,554.311584
	C540.462341,578.460876 540.287415,602.615601 540.289856,626.768372
	C540.296204,689.732178 540.320068,752.695984 540.288208,815.659790
	C540.286377,819.279419 540.115479,822.280029 545.388733,821.686523
	C564.265442,819.561890 582.964844,816.603882 601.356750,811.719910
	C605.532715,810.610901 606.876343,808.721924 606.799744,804.474792
	C606.553650,790.820435 606.713806,777.158813 606.718079,762.500000
z" fill="#C9A84C"/>
  <path d="
M520.708984,307.999939
	C520.708984,282.543152 520.708984,257.586395 520.708984,231.556854
	C516.704590,234.321854 513.431213,236.465164 510.280548,238.775787
	C481.260803,260.058441 452.284821,281.400787 423.220398,302.622162
	C420.519653,304.594116 419.320099,306.720703 419.335114,310.087738
	C419.512695,349.906433 419.575439,389.725647 419.673431,429.544708
	C419.676666,430.853485 420.004089,432.230682 417.991516,433.830200
	C412.407654,429.674835 406.559814,425.421722 400.842896,420.999298
	C399.411713,419.892181 399.774963,417.928955 399.774323,416.277466
	C399.759125,377.444977 399.821991,338.612183 399.659760,299.780334
	C399.641266,295.353119 402.539703,293.710144 405.283722,291.688416
	C433.188385,271.129150 461.106598,250.588165 489.055878,230.089554
	C502.223053,220.432465 515.534607,210.970657 528.623474,201.209473
	C531.700073,198.915039 533.814819,198.995178 536.913086,201.218643
	C579.827271,232.015640 622.825256,262.696106 665.852905,293.334564
	C668.288757,295.069061 669.301697,297.004517 669.298767,299.977997
	C669.239746,360.476654 669.256470,420.975311 669.233826,481.473999
	C669.233337,482.908966 669.573364,484.490265 668.257080,485.714050
	C666.140686,486.171326 664.890808,484.570648 663.477112,483.558044
	C649.795776,473.758728 636.047668,464.046570 622.567261,453.976746
	C618.950256,451.274841 616.498047,451.444580 612.976685,454.004089
	C584.002686,475.063751 554.901245,495.948120 525.843994,516.893127
	C524.638733,517.761902 523.502686,518.741333 520.708984,518.678955
	C520.708984,448.557037 520.708984,378.528473 520.708984,307.999939
z" fill="#C9A84C"/>
</svg>
